HIERARCHY
ROOT joint_Root
{
	OFFSET 0.0 0.0 0.0
	CHANNELS 6 Xposition Yposition Zposition Zrotation Xrotation Yrotation 
	JOINT Hips
	{
		OFFSET -0.726466 93.3139 -2.00062
		CHANNELS 6 Xposition Yposition Zposition Zrotation Xrotation Yrotation 
		JOINT Spine
		{
			OFFSET 15.7357 0.0 0.0
			CHANNELS 6 Xposition Yposition Zposition Zrotation Xrotation Yrotation 
			JOINT Chest
			{
				OFFSET 8.98455 -0.406207 0.0
				CHANNELS 6 Xposition Yposition Zposition Zrotation Xrotation Yrotation 
				JOINT Neck
				{
					OFFSET 16.3773 0.0 0.0
					CHANNELS 6 Xposition Yposition Zposition Zrotation Xrotation Yrotation 
					JOINT Head
					{
						OFFSET 6.45672 0.0 0.0
						CHANNELS 6 Xposition Yposition Zposition Zrotation Xrotation Yrotation 
						End Site
						{
							OFFSET 0.0 0.0 0.0
						}
					}
				}
				JOINT Shoulder_L
				{
					OFFSET 12.9942 -0.242716 4.98039
					CHANNELS 6 Xposition Yposition Zposition Zrotation Xrotation Yrotation 
					JOINT UpperArm_L
					{
						OFFSET 5.34809 0.0 0.0
						CHANNELS 6 Xposition Yposition Zposition Zrotation Xrotation Yrotation 
						JOINT LowerArm_L
						{
							OFFSET 24.3286 1.87007e-05 0.0
							CHANNELS 6 Xposition Yposition Zposition Zrotation Xrotation Yrotation 
							JOINT Hand_L
							{
								OFFSET 22.2916 0.0 0.0
								CHANNELS 6 Xposition Yposition Zposition Zrotation Xrotation Yrotation 
								End Site
								{
									OFFSET 0.0 0.0 0.0
								}
							}
						}
					}
				}
				JOINT Shoulder_R
				{
					OFFSET 12.9945 -0.242716 -4.98039
					CHANNELS 6 Xposition Yposition Zposition Zrotation Xrotation Yrotation 
					JOINT UpperArm_R
					{
						OFFSET -5.34813 0.0 0.0
						CHANNELS 6 Xposition Yposition Zposition Zrotation Xrotation Yrotation 
						JOINT LowerArm_R
						{
							OFFSET -24.3289 0.000322201 0.0
							CHANNELS 6 Xposition Yposition Zposition Zrotation Xrotation Yrotation 
							JOINT Hand_R
							{
								OFFSET -22.2915 -0.000108084 0.0
								CHANNELS 6 Xposition Yposition Zposition Zrotation Xrotation Yrotation 
								End Site
								{
									OFFSET 0.0 0.0 0.0
								}
							}
						}
					}
				}
			}
		}
		JOINT UpperLeg_L
		{
			OFFSET -2.19248 -6.46944 0.0
			CHANNELS 6 Xposition Yposition Zposition Zrotation Xrotation Yrotation 
			JOINT LowerLeg_L
			{
				OFFSET 39.0811 0.0 -1.23785e-05
				CHANNELS 6 Xposition Yposition Zposition Zrotation Xrotation Yrotation 
				JOINT Foot_L
				{
					OFFSET 40.9854 0.0 -1.26872e-05
					CHANNELS 6 Xposition Yposition Zposition Zrotation Xrotation Yrotation 
					JOINT Toes_L
					{
						OFFSET 11.7543 0.0 0.0
						CHANNELS 6 Xposition Yposition Zposition Zrotation Xrotation Yrotation 
						End Site
						{
							OFFSET 0.0 0.0 0.0
						}
					}
				}
			}
		}
		JOINT UpperLeg_R
		{
			OFFSET -2.19251 6.46944 0.0
			CHANNELS 6 Xposition Yposition Zposition Zrotation Xrotation Yrotation 
			JOINT LowerLeg_R
			{
				OFFSET -39.0811 -0.00228153 -0.0401928
				CHANNELS 6 Xposition Yposition Zposition Zrotation Xrotation Yrotation 
				JOINT Foot_R
				{
					OFFSET -40.9854 0.0 0.0
					CHANNELS 6 Xposition Yposition Zposition Zrotation Xrotation Yrotation 
					JOINT Toes_R
					{
						OFFSET -11.7543 0.0 0.0
						CHANNELS 6 Xposition Yposition Zposition Zrotation Xrotation Yrotation 
						End Site
						{
							OFFSET 0.0 0.0 0.0
						}
					}
				}
			}
		}
	}
}
MOTION
Frames:	9
Frame Time:	0.0333333
0.000000 0.000000 0.000000 0.000000 0.000000 -0.000000 -1.928140 92.280000 -2.021430 88.605100 0.423731 5.020810 15.735700 0.000005 -0.000001 77.276900 85.433000 -75.511500 8.984550 -0.406207 -0.000000 1.179570 -2.112190 3.549950 16.377300 -0.000001 -0.000001 4.191590 -2.310460 -2.354690 6.456720 -0.000001 -0.000000 6.641280 -2.602050 -2.408260 12.994200 -0.242716 4.980390 -87.985100 -5.857220 -70.978100 5.348090 -0.000007 -0.000001 -81.383100 -31.807600 -83.870900 24.328600 0.000019 0.000005 4.911970 0.635395 -82.647600 22.291600 -0.000001 0.000005 18.410100 5.582610 -10.352700 12.994500 -0.242716 -4.980390 88.320200 5.447280 -72.832600 -5.348130 -0.000001 -0.000004 -63.632900 39.399600 -16.334000 -24.328900 0.000322 -0.000009 2.033360 7.380540 -15.457400 -22.291500 -0.000108 -0.000004 8.341230 5.425090 -3.771370 -2.192480 -6.469440 -0.000000 -175.264000 -5.514450 -2.361470 39.081100 -0.000007 -0.000012 -0.107295 0.255137 22.808800 40.985400 -0.000006 -0.000013 -0.722144 4.660450 -65.658200 11.754300 -0.000000 0.000003 -0.000023 -0.000286 -16.588800 -2.192510 6.469440 -0.000001 179.912000 14.046200 -179.261000 -39.081100 -0.002282 -0.040193 -0.046016 0.136351 19.892200 -40.985400 0.000008 0.000006 3.621380 5.782830 -66.156500 -11.754300 -0.000006 -0.000006 -0.006169 -0.072362 -19.518300
0.000000 0.000000 0.000000 0.000000 0.000000 -0.000000 -1.963750 92.278600 -2.026610 88.571300 0.433319 5.007900 15.735700 0.000005 -0.000001 77.398700 85.429100 -75.642200 8.984550 -0.406207 -0.000000 1.191000 -2.094280 3.532110 16.377300 -0.000001 -0.000001 4.209620 -2.297480 -2.351560 6.456720 -0.000001 -0.000000 6.586110 -2.566270 -2.465100 12.994200 -0.242716 4.980390 -87.984400 -5.879100 -71.037500 5.348090 -0.000007 -0.000001 -81.209500 -31.924300 -83.352200 24.328600 0.000019 0.000005 4.665170 0.571925 -83.026500 22.291600 -0.000001 0.000005 18.502300 5.582010 -10.320400 12.994500 -0.242716 -4.980390 88.307700 5.484700 -72.823000 -5.348130 -0.000001 -0.000004 -63.573300 39.486800 -16.519200 -24.328900 0.000322 -0.000009 2.034950 7.349440 -15.530900 -22.291500 -0.000108 -0.000004 8.341130 5.426820 -3.830350 -2.192480 -6.469440 -0.000000 -175.197000 -5.528580 -2.398180 39.081100 -0.000007 -0.000012 -0.110023 0.261239 22.838900 40.985400 -0.000006 -0.000013 -0.745864 4.689470 -65.662200 11.754300 -0.000000 0.000003 -0.000023 -0.000289 -16.588900 -2.192510 6.469440 -0.000001 179.980000 14.042900 -179.284000 -39.081100 -0.002282 -0.040193 -0.045818 0.135882 19.881700 -40.985400 0.000008 0.000006 3.647410 5.772590 -66.143400 -11.754300 -0.000006 -0.000006 -0.005997 -0.070812 -19.455000
0.000000 0.000000 0.000000 0.000000 0.000000 -0.000000 -1.980980 92.277600 -2.032070 88.599600 0.475574 5.054250 15.735700 0.000005 -0.000001 77.293500 85.405200 -75.553700 8.984550 -0.406207 -0.000000 1.233970 -2.119510 3.499820 16.377300 -0.000001 -0.000001 4.152720 -2.267620 -2.369200 6.456720 -0.000001 -0.000000 6.631590 -2.500390 -2.528790 12.994200 -0.242716 4.980390 -87.989200 -5.896600 -71.131900 5.348090 -0.000007 -0.000001 -80.681200 -32.148300 -82.103100 24.328600 0.000019 0.000005 4.370700 0.464652 -83.944100 22.291600 -0.000001 0.000005 18.570500 5.581290 -10.281600 12.994500 -0.242716 -4.980390 88.290200 5.535810 -72.806200 -5.348130 -0.000001 -0.000004 -63.470700 39.680800 -16.689300 -24.328900 0.000322 -0.000009 2.042030 7.316040 -15.649600 -22.291500 -0.000108 -0.000004 8.297590 5.424780 -3.760550 -2.192480 -6.469440 -0.000000 -175.213000 -5.517720 -2.359060 39.081100 -0.000007 -0.000012 -0.109008 0.258982 22.826800 40.985400 -0.000006 -0.000013 -0.752042 4.707570 -65.643500 11.754300 -0.000000 0.000003 -0.000026 -0.000317 -16.590000 -2.192510 6.469440 -0.000001 179.951000 14.062500 -179.236000 -39.081100 -0.002282 -0.040193 -0.045601 0.135167 19.897200 -40.985400 0.000008 0.000006 3.634920 5.746340 -66.158700 -11.754300 -0.000006 -0.000006 -0.005876 -0.069702 -19.409800
0.000000 0.000000 0.000000 0.000000 0.000000 -0.000000 -1.995620 92.275200 -2.039170 88.595100 0.507593 5.072000 15.735700 0.000005 -0.000001 77.044800 85.378700 -75.288000 8.984550 -0.406207 -0.000000 1.278110 -2.170570 3.535300 16.377300 -0.000001 -0.000001 4.088800 -2.188560 -2.373470 6.456720 -0.000001 -0.000000 6.582760 -2.349040 -2.745890 12.994200 -0.242716 4.980390 -88.024900 -5.855220 -71.322200 5.348090 -0.000007 -0.000001 -79.574100 -32.595000 -79.797200 24.328600 0.000019 0.000005 4.573700 0.346290 -85.678500 22.291600 -0.000001 0.000005 18.765700 5.577330 -10.069900 12.994500 -0.242716 -4.980390 88.263200 5.605700 -72.755000 -5.348130 -0.000001 -0.000004 -63.373800 39.794600 -16.864900 -24.328900 0.000322 -0.000009 2.023290 7.234060 -15.679200 -22.291500 -0.000108 -0.000004 8.381120 5.427220 -3.843920 -2.192480 -6.469440 -0.000000 -175.201000 -5.506000 -2.361720 39.081100 -0.000007 -0.000012 -0.108048 0.256422 22.849000 40.985400 -0.000006 -0.000013 -0.756279 4.722280 -65.646400 11.754300 -0.000000 0.000003 -0.000023 -0.000280 -16.588500 -2.192510 6.469440 -0.000001 179.981000 14.034800 -179.247000 -39.081100 -0.002282 -0.040193 -0.044065 0.130639 19.937300 -40.985400 0.000008 0.000006 3.737770 5.675830 -66.185500 -11.754300 -0.000006 -0.000006 -0.006139 -0.072097 -19.507400
0.000000 0.000000 0.000000 0.000000 0.000000 -0.000000 -2.012370 92.282400 -2.075020 88.596400 0.520390 5.037260 15.735700 0.000005 -0.000001 76.878100 85.369600 -75.111400 8.984550 -0.406207 -0.000000 1.290400 -2.201220 3.555600 16.377300 -0.000001 -0.000001 4.028240 -2.135730 -2.334560 6.456720 -0.000001 -0.000000 6.466660 -2.207320 -2.913310 12.994200 -0.242716 4.980390 -88.095100 -5.706160 -71.504000 5.348090 -0.000007 -0.000001 -77.661700 -32.889700 -76.328400 24.328600 0.000019 0.000005 4.181520 0.145993 -88.008100 22.291600 -0.000001 0.000005 19.168600 5.578600 -10.136700 12.994500 -0.242716 -4.980390 88.199700 5.769250 -72.636400 -5.348130 -0.000001 -0.000004 -63.337400 39.739900 -16.889300 -24.328900 0.000322 -0.000009 2.058160 7.297420 -15.805100 -22.291500 -0.000108 -0.000004 8.374370 5.425220 -3.775420 -2.192480 -6.469440 -0.000000 -175.192000 -5.529720 -2.408340 39.081100 -0.000007 -0.000012 -0.108558 0.258086 22.813000 40.985400 -0.000006 -0.000013 -0.761454 4.760610 -65.597700 11.754300 -0.000000 0.000003 -0.000023 -0.000284 -16.588700 -2.192510 6.469440 -0.000001 -179.967000 13.946900 -179.305000 -39.081100 -0.002282 -0.040193 -0.041297 0.123136 19.917900 -40.985400 0.000008 0.000006 3.787260 5.565540 -66.153000 -11.754300 -0.000006 -0.000006 -0.005886 -0.069797 -19.413600
0.000000 0.000000 0.000000 0.000000 0.000000 -0.000000 -2.005340 92.280900 -2.087320 88.597700 0.424401 5.008190 15.735700 0.000005 -0.000001 77.170900 85.358700 -75.385500 8.984550 -0.406207 -0.000000 1.322080 -2.160530 3.592900 16.377300 -0.000001 -0.000001 3.906660 -2.083380 -2.207840 6.456720 -0.000001 -0.000000 6.298070 -2.044240 -3.146890 12.994200 -0.242716 4.980390 -88.226100 -5.385790 -71.739600 5.348090 -0.000007 -0.000001 -74.567600 -32.916200 -71.480900 24.328600 0.000019 0.000005 2.310650 -0.034282 -90.868200 22.291600 -0.000001 0.000005 19.549200 5.582690 -10.355900 12.994500 -0.242716 -4.980390 88.153400 5.864900 -72.488900 -5.348130 -0.000001 -0.000004 -63.432600 39.657300 -16.819800 -24.328900 0.000322 -0.000009 2.050360 7.206440 -15.935900 -22.291500 -0.000108 -0.000004 8.404940 5.425410 -3.782260 -2.192480 -6.469440 -0.000000 -175.201000 -5.583470 -2.439980 39.081100 -0.000007 -0.000012 -0.108195 0.257033 22.828200 40.985400 -0.000006 -0.000013 -0.761520 4.721140 -65.604500 11.754300 -0.000000 0.000003 -0.000028 -0.000337 -16.590700 -2.192510 6.469440 -0.000001 -179.964000 13.913400 -179.366000 -39.081100 -0.002282 -0.040193 -0.042711 0.126813 19.950600 -40.985400 0.000008 0.000006 3.789820 5.611640 -66.154200 -11.754300 -0.000006 -0.000006 -0.006124 -0.071959 -19.501800
0.000000 0.000000 0.000000 0.000000 0.000000 -0.000000 -1.999290 92.283100 -2.101710 88.596400 0.337901 4.966120 15.735700 0.000005 -0.000001 77.566900 85.343200 -75.791200 8.984550 -0.406207 -0.000000 1.365170 -2.103370 3.573540 16.377300 -0.000001 -0.000001 3.685400 -2.079800 -2.047650 6.456720 -0.000001 -0.000000 6.188830 -1.930310 -3.203830 12.994200 -0.242716 4.980390 -88.403400 -4.907600 -71.953500 5.348090 -0.000007 -0.000001 -70.426600 -32.227300 -65.569100 24.328600 0.000019 0.000005 1.318160 -0.092197 -93.999800 22.291600 -0.000001 0.000005 19.600300 5.587860 -10.642000 12.994500 -0.242716 -4.980390 88.103300 5.984290 -72.378300 -5.348130 -0.000001 -0.000004 -63.624800 39.637200 -16.625900 -24.328900 0.000322 -0.000009 2.048360 7.156400 -16.026300 -22.291500 -0.000108 -0.000004 8.365470 5.425580 -3.787870 -2.192480 -6.469440 -0.000000 -175.206000 -5.612170 -2.475970 39.081100 -0.000007 -0.000012 -0.108453 0.257775 22.817900 40.985400 -0.000006 -0.000013 -0.769542 4.675450 -65.595600 11.754300 -0.000000 0.000003 -0.000025 -0.000306 -16.589500 -2.192510 6.469440 -0.000001 -179.951000 13.804400 -179.425000 -39.081100 -0.002282 -0.040193 -0.044154 0.130871 19.938900 -40.985400 0.000008 0.000006 3.712780 5.624060 -66.117800 -11.754300 -0.000006 -0.000006 -0.005942 -0.070309 -19.434500
0.000000 0.000000 0.000000 0.000000 0.000000 -0.000000 -1.979380 92.292500 -2.125710 88.581300 0.212595 4.897120 15.735700 0.000005 -0.000001 78.266900 85.335500 -76.504000 8.984550 -0.406207 -0.000000 1.402030 -1.993990 3.547360 16.377300 -0.000001 -0.000001 3.440810 -2.084870 -1.790910 6.456720 -0.000001 -0.000000 6.021440 -1.860070 -3.254120 12.994200 -0.242716 4.980390 -88.591300 -4.373980 -72.128300 5.348090 -0.000007 -0.000001 -65.519600 -30.385800 -58.551500 24.328600 0.000019 0.000005 1.370790 -0.175064 -97.279300 22.291600 -0.000001 0.000005 19.468400 5.590260 -10.777100 12.994500 -0.242716 -4.980390 88.044800 6.114240 -72.228800 -5.348130 -0.000001 -0.000004 -63.724500 39.836900 -16.439400 -24.328900 0.000322 -0.000009 2.052160 7.132000 -16.106300 -22.291500 -0.000108 -0.000004 8.326670 5.425900 -3.798930 -2.192480 -6.469440 -0.000000 -175.210000 -5.684430 -2.527970 39.081100 -0.000007 -0.000012 -0.108051 0.257315 22.778500 40.985400 -0.000006 -0.000013 -0.771147 4.608030 -65.565700 11.754300 -0.000000 0.000003 -0.000028 -0.000340 -16.590800 -2.192510 6.469440 -0.000001 -179.893000 13.643000 -179.516000 -39.081100 -0.002282 -0.040193 -0.041217 0.122970 19.909800 -40.985400 0.000008 0.000006 3.798370 5.561150 -66.079800 -11.754300 -0.000006 -0.000006 -0.005893 -0.069862 -19.416300
0.000000 0.000000 0.000000 0.000000 0.000000 -0.000000 -1.958640 92.295600 -2.165720 88.586600 0.084471 4.816010 15.735700 0.000005 -0.000001 78.984600 85.321600 -77.256600 8.984550 -0.406207 -0.000000 1.449880 -1.882110 3.476980 16.377300 -0.000001 -0.000001 3.161710 -2.166080 -1.510360 6.456720 -0.000001 -0.000000 5.847220 -1.838100 -3.247350 12.994200 -0.242716 4.980390 -88.863100 -3.563420 -72.291900 5.348090 -0.000007 -0.000001 -60.264500 -27.333300 -51.707100 24.328600 0.000019 0.000005 1.382190 -0.237567 -99.748100 22.291600 -0.000001 0.000005 18.376300 5.590580 -10.793100 12.994500 -0.242716 -4.980390 88.026000 6.159720 -72.192600 -5.348130 -0.000001 -0.000004 -64.021000 39.894700 -16.105700 -24.328900 0.000322 -0.000009 2.068880 7.168710 -16.152300 -22.291500 -0.000108 -0.000004 8.359950 5.426480 -3.818600 -2.192480 -6.469440 -0.000000 -175.241000 -5.726660 -2.614640 39.081100 -0.000007 -0.000012 -0.108734 0.259024 22.772000 40.985400 -0.000006 -0.000013 -0.775195 4.513290 -65.547600 11.754300 -0.000000 0.000003 -0.000026 -0.000315 -16.589900 -2.192510 6.469440 -0.000001 -179.881000 13.542500 -179.654000 -39.081100 -0.002282 -0.040193 -0.042771 0.127100 19.933200 -40.985400 0.000008 0.000006 3.756400 5.575780 -66.042300 -11.754300 -0.000006 -0.000006 -0.006103 -0.071772 -19.494200
